<svg id="visual" viewBox="0 0 960 540" width="960" height="540" xmlns="http://www.w3.org/2000/svg" xmlns:xlink="http://www.w3.org/1999/xlink" version="1.1"><rect x="0" y="0" width="960" height="540" fill="#F7CACA"></rect><defs><linearGradient id="grad1_0" x1="43.8%" y1="0%" x2="100%" y2="100%"><stop offset="14.444444444444446%" stop-color="#f7caca" stop-opacity="1"></stop><stop offset="85.55555555555554%" stop-color="#f7caca" stop-opacity="1"></stop></linearGradient></defs><defs><linearGradient id="grad2_0" x1="0%" y1="0%" x2="56.3%" y2="100%"><stop offset="14.444444444444446%" stop-color="#f7caca" stop-opacity="1"></stop><stop offset="85.55555555555554%" stop-color="#f7caca" stop-opacity="1"></stop></linearGradient></defs><g transform="translate(960, 0)"><path d="M0 486C-58.8 472.2 -117.6 458.3 -181.8 438.8C-246 419.4 -315.6 394.3 -343.7 343.7C-371.7 293 -358.3 216.9 -375.1 155.4C-391.9 93.8 -438.9 46.9 -486 0L0 0Z" fill="#6600FF"></path></g><g transform="translate(0, 540)"><path d="M0 -486C65.9 -481.3 131.8 -476.6 186 -449C240.1 -421.5 282.5 -371.1 323.9 -323.9C365.2 -276.6 405.5 -232.5 432.4 -179.1C459.2 -125.6 472.6 -62.8 486 0L0 0Z" fill="#6600FF"></path></g></svg>